<?xml version="1.0" standalone="no"?>
<!DOCTYPE svg PUBLIC "-//W3C//DTD SVG 20010904//EN"
 "http://www.w3.org/TR/2001/REC-SVG-20010904/DTD/svg10.dtd">
<svg version="1.0" xmlns="http://www.w3.org/2000/svg"
 width="1000.000000pt" height="1000.000000pt" viewBox="0 0 1000.000000 1000.000000"
 preserveAspectRatio="xMidYMid meet">
<metadata>
Created by potrace 1.14, written by Peter Selinger 2001-2017
</metadata>
<g transform="translate(0.000000,1000.000000) scale(0.100000,-0.100000)"
fill="#000000" stroke="none">
<path d="M3704 9791 c-86 -21 -203 -79 -266 -132 -41 -34 -725 -718 -2703
-2703 -221 -221 -423 -428 -450 -461 -56 -69 -106 -171 -129 -267 -19 -75 -26
-205 -15 -258 5 -19 10 -46 13 -60 4 -23 25 -101 90 -340 14 -52 43 -160 65
-240 21 -80 49 -181 61 -225 21 -78 102 -378 255 -950 42 -154 89 -329 106
-390 17 -60 32 -117 34 -125 2 -8 9 -35 16 -60 7 -25 13 -49 15 -55 4 -17 185
-688 195 -725 6 -19 19 -66 29 -105 10 -38 28 -105 39 -147 12 -43 24 -85 26
-95 2 -10 36 -135 75 -278 39 -143 72 -267 74 -275 44 -185 89 -301 149 -389
43 -63 135 -150 202 -190 52 -32 158 -79 193 -86 10 -2 62 -15 117 -30 55 -15
327 -87 605 -161 278 -74 564 -150 635 -169 72 -20 142 -37 155 -40 14 -3 36
-9 50 -14 14 -5 81 -24 150 -41 69 -18 175 -46 235 -62 229 -61 300 -80 315
-84 8 -2 42 -11 75 -20 33 -9 67 -18 75 -20 8 -2 42 -11 75 -20 33 -9 67 -18
75 -20 8 -2 56 -14 105 -28 50 -13 162 -43 250 -66 88 -23 192 -50 230 -61 39
-11 77 -22 85 -24 8 -1 69 -17 135 -35 217 -58 490 -131 505 -134 8 -2 69 -19
135 -36 187 -51 244 -61 326 -61 111 1 211 25 319 77 l95 47 1270 1273 c1777
1782 1899 1905 1922 1939 80 119 121 241 128 380 4 95 -6 150 -71 386 -54 198
-59 220 -68 256 -12 52 -96 362 -241 893 -57 210 -76 280 -110 410 -19 69 -40
150 -49 180 -37 139 -58 216 -61 230 -2 8 -16 58 -30 110 -42 152 -85 314 -90
332 -5 24 -43 164 -61 223 -8 28 -37 136 -65 240 -28 105 -57 215 -65 245 -8
30 -17 62 -19 70 -2 8 -20 76 -40 150 -43 160 -67 246 -129 478 -59 218 -78
271 -133 356 -99 154 -242 254 -433 305 -97 25 -256 68 -345 92 -82 22 -373
99 -395 105 -8 2 -42 11 -75 20 -33 9 -67 18 -75 19 -8 2 -15 4 -15 5 0 1 -7
3 -15 5 -27 6 -94 23 -150 38 -62 18 -140 38 -535 143 -154 41 -287 76 -295
78 -8 2 -76 20 -150 40 -74 21 -143 39 -153 41 -10 2 -27 7 -37 10 -10 3 -27
8 -37 10 -10 2 -36 9 -58 15 -22 6 -47 12 -55 14 -21 6 -156 42 -268 72 -51
14 -100 27 -111 29 -10 2 -49 12 -87 23 -38 11 -139 38 -224 61 -85 22 -342
91 -570 151 -228 61 -451 119 -494 130 -99 23 -238 23 -332 1z m736 -1556
c179 -48 359 -95 400 -106 41 -11 127 -34 190 -51 63 -17 156 -42 205 -55 99
-27 116 -31 145 -37 11 -3 24 -7 28 -10 5 -3 20 -7 35 -10 14 -2 112 -28 216
-56 104 -28 198 -53 209 -55 10 -2 50 -12 88 -23 61 -18 522 -141 549 -147 5
-1 17 -4 25 -7 8 -3 148 -40 310 -83 675 -177 617 -158 626 -198 4 -17 9 -36
10 -42 9 -35 16 -60 38 -140 49 -181 87 -321 102 -375 9 -30 17 -62 19 -70 2
-8 26 -100 55 -205 28 -104 65 -239 81 -300 16 -60 45 -168 64 -240 52 -190
86 -318 90 -335 2 -8 26 -98 55 -200 28 -102 53 -192 55 -200 1 -8 10 -42 19
-75 9 -33 18 -67 20 -75 8 -34 148 -551 172 -635 14 -49 27 -99 29 -110 3 -11
23 -87 45 -169 23 -81 40 -154 38 -161 -2 -8 -556 -568 -1231 -1246 l-1228
-1232 -37 11 c-86 25 -158 44 -339 92 -287 75 -903 238 -943 250 -19 6 -105
29 -190 51 -156 41 -259 68 -360 95 -30 9 -104 28 -165 44 -163 43 -525 138
-565 150 -98 27 -196 54 -410 110 -129 34 -264 70 -300 81 l-65 18 -27 103
c-16 57 -44 162 -63 233 -19 72 -48 180 -64 240 -16 61 -53 196 -81 300 -29
105 -53 197 -55 205 -2 8 -10 40 -19 70 -8 30 -49 181 -90 335 -42 154 -80
296 -86 315 -10 36 -88 323 -95 350 -1 8 -17 67 -35 130 -17 63 -33 124 -35
134 -3 10 -9 33 -15 51 -6 18 -13 42 -15 54 -2 12 -20 82 -40 154 -20 73 -38
139 -40 147 -2 8 -15 56 -29 105 -13 50 -36 135 -51 190 -15 55 -35 132 -46
170 -10 39 -19 73 -19 77 0 8 411 422 1693 1706 513 513 776 771 787 767 8 -2
161 -43 340 -90z"/>
</g>
</svg>
